<svg id="my-svg" width="100%" xmlns="http://www.w3.org/2000/svg" xmlns:xlink="http://www.w3.org/1999/xlink" class="statediagram" style="max-width: 570.93px; background-color: white;" viewBox="0 0 570.9296875 476" role="graphics-document document" aria-roledescription="stateDiagram"><style>#my-svg{font-family:"trebuchet ms",verdana,arial,sans-serif;font-size:16px;fill:#333;}@keyframes edge-animation-frame{from{stroke-dashoffset:0;}}@keyframes dash{to{stroke-dashoffset:0;}}#my-svg .edge-animation-slow{stroke-dasharray:9,5!important;stroke-dashoffset:900;animation:dash 50s linear infinite;stroke-linecap:round;}#my-svg .edge-animation-fast{stroke-dasharray:9,5!important;stroke-dashoffset:900;animation:dash 20s linear infinite;stroke-linecap:round;}#my-svg .error-icon{fill:#552222;}#my-svg .error-text{fill:#552222;stroke:#552222;}#my-svg .edge-thickness-normal{stroke-width:1px;}#my-svg .edge-thickness-thick{stroke-width:3.5px;}#my-svg .edge-pattern-solid{stroke-dasharray:0;}#my-svg .edge-thickness-invisible{stroke-width:0;fill:none;}#my-svg .edge-pattern-dashed{stroke-dasharray:3;}#my-svg .edge-pattern-dotted{stroke-dasharray:2;}#my-svg .marker{fill:#333333;stroke:#333333;}#my-svg .marker.cross{stroke:#333333;}#my-svg svg{font-family:"trebuchet ms",verdana,arial,sans-serif;font-size:16px;}#my-svg p{margin:0;}#my-svg defs #statediagram-barbEnd{fill:#333333;stroke:#333333;}#my-svg g.stateGroup text{fill:#9370DB;stroke:none;font-size:10px;}#my-svg g.stateGroup text{fill:#333;stroke:none;font-size:10px;}#my-svg g.stateGroup .state-title{font-weight:bolder;fill:#131300;}#my-svg g.stateGroup rect{fill:#ECECFF;stroke:#9370DB;}#my-svg g.stateGroup line{stroke:#333333;stroke-width:1;}#my-svg .transition{stroke:#333333;stroke-width:1;fill:none;}#my-svg .stateGroup .composit{fill:white;border-bottom:1px;}#my-svg .stateGroup .alt-composit{fill:#e0e0e0;border-bottom:1px;}#my-svg .state-note{stroke:#aaaa33;fill:#fff5ad;}#my-svg .state-note text{fill:black;stroke:none;font-size:10px;}#my-svg .stateLabel .box{stroke:none;stroke-width:0;fill:#ECECFF;opacity:0.5;}#my-svg .edgeLabel .label rect{fill:#ECECFF;opacity:0.5;}#my-svg .edgeLabel{background-color:rgba(232,232,232, 0.8);text-align:center;}#my-svg .edgeLabel p{background-color:rgba(232,232,232, 0.8);}#my-svg .edgeLabel rect{opacity:0.5;background-color:rgba(232,232,232, 0.8);fill:rgba(232,232,232, 0.8);}#my-svg .edgeLabel .label text{fill:#333;}#my-svg .label div .edgeLabel{color:#333;}#my-svg .stateLabel text{fill:#131300;font-size:10px;font-weight:bold;}#my-svg .node circle.state-start{fill:#333333;stroke:#333333;}#my-svg .node .fork-join{fill:#333333;stroke:#333333;}#my-svg .node circle.state-end{fill:#9370DB;stroke:white;stroke-width:1.5;}#my-svg .end-state-inner{fill:white;stroke-width:1.5;}#my-svg .node rect{fill:#ECECFF;stroke:#9370DB;stroke-width:1px;}#my-svg .node polygon{fill:#ECECFF;stroke:#9370DB;stroke-width:1px;}#my-svg #statediagram-barbEnd{fill:#333333;}#my-svg .statediagram-cluster rect{fill:#ECECFF;stroke:#9370DB;stroke-width:1px;}#my-svg .cluster-label,#my-svg .nodeLabel{color:#131300;}#my-svg .statediagram-cluster rect.outer{rx:5px;ry:5px;}#my-svg .statediagram-state .divider{stroke:#9370DB;}#my-svg .statediagram-state .title-state{rx:5px;ry:5px;}#my-svg .statediagram-cluster.statediagram-cluster .inner{fill:white;}#my-svg .statediagram-cluster.statediagram-cluster-alt .inner{fill:#f0f0f0;}#my-svg .statediagram-cluster .inner{rx:0;ry:0;}#my-svg .statediagram-state rect.basic{rx:5px;ry:5px;}#my-svg .statediagram-state rect.divider{stroke-dasharray:10,10;fill:#f0f0f0;}#my-svg .note-edge{stroke-dasharray:5;}#my-svg .statediagram-note rect{fill:#fff5ad;stroke:#aaaa33;stroke-width:1px;rx:0;ry:0;}#my-svg .statediagram-note rect{fill:#fff5ad;stroke:#aaaa33;stroke-width:1px;rx:0;ry:0;}#my-svg .statediagram-note text{fill:black;}#my-svg .statediagram-note .nodeLabel{color:black;}#my-svg .statediagram .edgeLabel{color:red;}#my-svg #dependencyStart,#my-svg #dependencyEnd{fill:#333333;stroke:#333333;stroke-width:1;}#my-svg .statediagramTitleText{text-anchor:middle;font-size:18px;fill:#333;}#my-svg :root{--mermaid-font-family:"trebuchet ms",verdana,arial,sans-serif;}</style><g><defs><marker id="my-svg_stateDiagram-barbEnd" refX="19" refY="7" markerWidth="20" markerHeight="14" markerUnits="userSpaceOnUse" orient="auto"><path d="M 19,7 L9,13 L14,7 L9,1 Z"/></marker></defs><g class="root"><g class="clusters"><g class="note-cluster" id="OFF----parent"><rect x="8" y="210" width="215.484375" height="104" fill="none"/></g><g class="note-cluster" id="ROLLING----parent"><rect x="265.8125" y="364" width="215.484375" height="104" fill="none"/></g></g><g class="edgePaths"><path d="M270.43,22L270.43,26.167C270.43,30.333,270.43,38.667,270.513,47.083C270.596,55.5,270.763,64,270.846,68.25L270.93,72.5" id="edge0" class="edge-thickness-normal edge-pattern-solid transition" style="fill:none;;;fill:none" data-edge="true" data-et="edge" data-id="edge0" data-points="W3sieCI6MjcwLjQyOTY4NzUsInkiOjIyfSx7IngiOjI3MC40Mjk2ODc1LCJ5Ijo0N30seyJ4IjoyNzAuOTI5Njg3NSwieSI6NzIuNX1d" marker-end="url(#my-svg_stateDiagram-barbEnd)"/><path d="M270.93,112.5L270.846,120.583C270.763,128.667,270.596,144.833,270.513,161.083C270.43,177.333,270.43,193.667,281.502,207.458C292.575,221.249,314.72,232.498,325.792,238.123L336.865,243.747" id="edge1" class="edge-thickness-normal edge-pattern-solid transition" style="fill:none;;;fill:none" data-edge="true" data-et="edge" data-id="edge1" data-points="W3sieCI6MjcwLjkyOTY4NzUsInkiOjExMi41fSx7IngiOjI3MC40Mjk2ODc1LCJ5IjoxNjF9LHsieCI6MjcwLjQyOTY4NzUsInkiOjIxMH0seyJ4IjozMzYuODY1MDE1NDU1Njk4NiwieSI6MjQzLjc0NzM4OTYxMTYwMDc3fV0=" marker-end="url(#my-svg_stateDiagram-barbEnd)"/><path d="M411.244,243.747L422.15,238.123C433.056,232.498,454.868,221.249,465.774,207.458C476.68,193.667,476.68,177.333,446.02,158.965C415.359,140.596,354.039,120.193,323.379,109.991L292.719,99.789" id="edge2" class="edge-thickness-normal edge-pattern-solid transition" style="fill:none;;;fill:none" data-edge="true" data-et="edge" data-id="edge2" data-points="W3sieCI6NDExLjI0NDM1OTU0NDI3NzI0LCJ5IjoyNDMuNzQ3Mzg5NjExNjEyOTN9LHsieCI6NDc2LjY3OTY4NzUsInkiOjIxMH0seyJ4Ijo0NzYuNjc5Njg3NSwieSI6MTYxfSx7IngiOjI5Mi43MTg3NSwieSI6OTkuNzg5NDMxODE4MTgxODJ9XQ==" marker-end="url(#my-svg_stateDiagram-barbEnd)"/><path d="M249.141,102.219L226.908,112.016C204.674,121.813,160.208,141.406,137.975,159.37C115.742,177.333,115.742,193.667,115.742,206C115.742,218.333,115.742,226.667,115.742,230.833L115.742,235" id="OFF-OFF----note-3" class="edge-thickness-normal edge-pattern-solid transition note-edge" style="fill:none;;;fill:none" data-edge="true" data-et="edge" data-id="OFF-OFF----note-3" data-points="W3sieCI6MjQ5LjE0MDYyNSwieSI6MTAyLjIxOTI0MjQyNDI0MjQyfSx7IngiOjExNS43NDIxODc1LCJ5IjoxNjF9LHsieCI6MTE1Ljc0MjE4NzUsInkiOjIxMH0seyJ4IjoxMTUuNzQyMTg3NSwieSI6MjM1fV0="/><path d="M374.055,282.5L373.971,287.75C373.888,293,373.721,303.5,373.638,312.917C373.555,322.333,373.555,330.667,373.555,339C373.555,347.333,373.555,355.667,373.555,364C373.555,372.333,373.555,380.667,373.555,384.833L373.555,389" id="ROLLING-ROLLING----note-4" class="edge-thickness-normal edge-pattern-solid transition note-edge" style="fill:none;;;fill:none" data-edge="true" data-et="edge" data-id="ROLLING-ROLLING----note-4" data-points="W3sieCI6Mzc0LjA1NDY4NzUsInkiOjI4Mi41fSx7IngiOjM3My41NTQ2ODc1LCJ5IjozMTR9LHsieCI6MzczLjU1NDY4NzUsInkiOjMzOX0seyJ4IjozNzMuNTU0Njg3NSwieSI6MzY0fSx7IngiOjM3My41NTQ2ODc1LCJ5IjozODl9XQ=="/></g><g class="edgeLabels"><g class="edgeLabel"><g class="label" data-id="edge0" transform="translate(0, 0)"><foreignObject width="0" height="0"><div xmlns="http://www.w3.org/1999/xhtml" class="labelBkg" style="display: table-cell; white-space: nowrap; line-height: 1.5; max-width: 200px; text-align: center;"><span class="edgeLabel"></span></div></foreignObject></g></g><g class="edgeLabel" transform="translate(270.4296875, 161)"><g class="label" data-id="edge1" transform="translate(-100, -24)"><foreignObject width="200" height="48"><div xmlns="http://www.w3.org/1999/xhtml" class="labelBkg" style="display: table; white-space: break-spaces; line-height: 1.5; max-width: 200px; text-align: center; width: 200px;"><span class="edgeLabel"><p>SuperStructure sets ROLLING</p></span></div></foreignObject></g></g><g class="edgeLabel" transform="translate(476.6796875, 161)"><g class="label" data-id="edge2" transform="translate(-86.25, -12)"><foreignObject width="172.5" height="24"><div xmlns="http://www.w3.org/1999/xhtml" class="labelBkg" style="display: table-cell; white-space: nowrap; line-height: 1.5; max-width: 200px; text-align: center;"><span class="edgeLabel"><p>SuperStructure sets OFF</p></span></div></foreignObject></g></g><g class="edgeLabel"><g class="label" data-id="OFF-OFF----note-3" transform="translate(0, 0)"><foreignObject width="0" height="0"><div xmlns="http://www.w3.org/1999/xhtml" class="labelBkg" style="display: table-cell; white-space: nowrap; line-height: 1.5; max-width: 200px; text-align: center;"><span class="edgeLabel"></span></div></foreignObject></g></g><g class="edgeLabel"><g class="label" data-id="ROLLING-ROLLING----note-4" transform="translate(0, 0)"><foreignObject width="0" height="0"><div xmlns="http://www.w3.org/1999/xhtml" class="labelBkg" style="display: table-cell; white-space: nowrap; line-height: 1.5; max-width: 200px; text-align: center;"><span class="edgeLabel"></span></div></foreignObject></g></g></g><g class="nodes"><g class="node default" id="state-root_start-0" transform="translate(270.4296875, 15)"><circle class="state-start" r="7" width="14" height="14"/></g><g class="node  statediagram-state" id="state-OFF-3" transform="translate(270.4296875, 92)"><g class="basic label-container outer-path"><path d="M-16.7890625 -20 C-7.306104280278387 -20, 2.1768539394432267 -20, 16.7890625 -20 C16.7890625 -20, 16.7890625 -20, 16.7890625 -20 C16.884583099355353 -19.996049238786778, 16.980103698710707 -19.992098477573556, 17.201959227361662 -19.982922465033347 C17.3164996497423 -19.968645016273072, 17.431040072122943 -19.954367567512794, 17.61203545140367 -19.931806517013612 C17.730810149772893 -19.90690208169466, 17.84958484814212 -19.88199764637571, 18.016489935703998 -19.847001329696653 C18.1514918197956 -19.806809527418185, 18.286493703887196 -19.766617725139714, 18.412559846023417 -19.729086208503173 C18.538550032506517 -19.679924685183718, 18.66454021898962 -19.63076316186426, 18.797539623264846 -19.578866633275286 C18.944717517234913 -19.50691574520063, 19.091895411204977 -19.43496485712597, 19.16879946518537 -19.397368756032446 C19.243012961824753 -19.353147110608294, 19.317226458464138 -19.30892546518414, 19.523803290612136 -19.185832391312644 C19.65447362314529 -19.09253556711839, 19.785143955678443 -18.999238742924135, 19.86012606344834 -18.94570254698197 C19.93715321422818 -18.88046387811413, 20.014180365008013 -18.815225209246297, 20.175470358128706 -18.678619553365657 C20.242287747822395 -18.611802163671967, 20.309105137516088 -18.544984773978275, 20.467682053365657 -18.386407858128706 C20.53399237575288 -18.30811540842947, 20.60030269814011 -18.22982295873023, 20.73476504698197 -18.07106356344834 C20.78351757452612 -18.002781400137383, 20.832270102070268 -17.93449923682643, 20.974894891312644 -17.734740790612136 C21.019233699225694 -17.660330669946383, 21.063572507138744 -17.585920549280626, 21.186431256032446 -17.37973696518537 C21.24890884921376 -17.251937005646266, 21.31138644239507 -17.12413704610716, 21.367929133275286 -17.008477123264846 C21.42077053714217 -16.873056211183727, 21.47361194100906 -16.73763529910261, 21.518148708503173 -16.623497346023417 C21.555509143903382 -16.49800585563029, 21.592869579303592 -16.372514365237166, 21.636063829696653 -16.227427435703994 C21.658129463847377 -16.122191600921443, 21.6801950979981 -16.016955766138892, 21.720869017013612 -15.82297295140367 C21.73678794342689 -15.695263821723836, 21.75270686984017 -15.567554692044004, 21.771984965033347 -15.412896727361662 C21.778259484873765 -15.261192824372522, 21.784534004714185 -15.10948892138338, 21.7890625 -15 C21.7890625 -15, 21.7890625 -15, 21.7890625 -15 C21.7890625 -6.4472291503091, 21.7890625 2.1055416993817992, 21.7890625 15 C21.7890625 15, 21.7890625 15, 21.7890625 15 C21.783139202171178 15.143212137670027, 21.777215904342356 15.286424275340055, 21.771984965033347 15.412896727361662 C21.75754644486964 15.528729340447535, 21.74310792470593 15.64456195353341, 21.720869017013612 15.822972951403669 C21.697474741566673 15.934545367087493, 21.67408046611973 16.04611778277132, 21.636063829696653 16.227427435703994 C21.589401581015306 16.384163166146894, 21.542739332333962 16.540898896589795, 21.518148708503173 16.623497346023417 C21.459348668891337 16.77418893277042, 21.400548629279502 16.924880519517426, 21.367929133275286 17.008477123264846 C21.31424189676054 17.11829612084434, 21.26055466024579 17.228115118423833, 21.186431256032446 17.379736965185366 C21.116263682910745 17.497493346751774, 21.046096109789044 17.615249728318187, 20.974894891312644 17.734740790612133 C20.88763235011443 17.85695958395838, 20.80036980891622 17.979178377304624, 20.73476504698197 18.07106356344834 C20.673815231202525 18.14302687495547, 20.61286541542308 18.2149901864626, 20.467682053365657 18.386407858128706 C20.373917862641363 18.480172048853, 20.280153671917066 18.573936239577296, 20.175470358128706 18.678619553365657 C20.107395114965794 18.73627634323572, 20.03931987180288 18.79393313310578, 19.86012606344834 18.94570254698197 C19.748365021103414 19.025498397480597, 19.636603978758483 19.105294247979224, 19.523803290612136 19.185832391312644 C19.43250501737166 19.240234353892255, 19.341206744131185 19.294636316471863, 19.16879946518537 19.397368756032446 C19.0417340661668 19.459487244457115, 18.91466866714823 19.521605732881785, 18.797539623264846 19.578866633275286 C18.676694679801113 19.626020476538528, 18.555849736337382 19.673174319801767, 18.412559846023417 19.729086208503173 C18.321000903499687 19.75634448670796, 18.22944196097596 19.78360276491275, 18.016489935703998 19.847001329696653 C17.926595655801922 19.865850178063376, 17.83670137589985 19.884699026430102, 17.61203545140367 19.931806517013612 C17.518170827064615 19.94350673023572, 17.42430620272556 19.95520694345782, 17.201959227361662 19.982922465033347 C17.079951314518976 19.98796874963602, 16.957943401676285 19.993015034238695, 16.7890625 20 C16.7890625 20, 16.7890625 20, 16.7890625 20 C5.797501864007234 20, -5.194058771985532 20, -16.7890625 20 C-16.7890625 20, -16.7890625 20, -16.7890625 20 C-16.942003636698143 19.993674307794855, -17.094944773396286 19.987348615589706, -17.201959227361662 19.982922465033347 C-17.326370951702852 19.96741455976689, -17.45078267604404 19.951906654500434, -17.61203545140367 19.931806517013612 C-17.768197931901636 19.89906268816617, -17.924360412399597 19.866318859318724, -18.016489935703994 19.847001329696653 C-18.104871134736204 19.820689106718888, -18.193252333768413 19.794376883741123, -18.412559846023417 19.729086208503173 C-18.492406641904047 19.697929892068988, -18.572253437784674 19.666773575634803, -18.797539623264846 19.578866633275286 C-18.906825506257597 19.525440020601028, -19.016111389250344 19.472013407926774, -19.16879946518537 19.397368756032446 C-19.267871495813427 19.33833463948659, -19.366943526441485 19.279300522940733, -19.523803290612133 19.185832391312644 C-19.603913081450987 19.128635100028223, -19.68402287228984 19.071437808743802, -19.86012606344834 18.94570254698197 C-19.952682235758598 18.867311467785985, -20.045238408068855 18.788920388590004, -20.175470358128706 18.67861955336566 C-20.268835878808854 18.58525403268551, -20.362201399489003 18.49188851200536, -20.467682053365657 18.386407858128706 C-20.55451406429402 18.28388549655439, -20.641346075222376 18.181363134980078, -20.734765046981966 18.07106356344834 C-20.79276345186519 17.9898317432022, -20.85076185674842 17.908599922956057, -20.974894891312644 17.734740790612133 C-21.025685811116556 17.649502629073258, -21.07647673092047 17.564264467534382, -21.186431256032446 17.37973696518537 C-21.23686710420321 17.27656878876669, -21.287302952373974 17.17340061234801, -21.367929133275286 17.00847712326485 C-21.40002839260798 16.926213771842324, -21.432127651940668 16.843950420419795, -21.518148708503173 16.623497346023417 C-21.55611615944305 16.495966926374013, -21.59408361038293 16.368436506724606, -21.636063829696653 16.227427435703994 C-21.65438109717256 16.140068381321274, -21.67269836464847 16.052709326938555, -21.720869017013612 15.82297295140367 C-21.739176677607603 15.67610027040542, -21.75748433820159 15.52922758940717, -21.771984965033347 15.412896727361664 C-21.77834451049357 15.259137094419255, -21.784704055953792 15.105377461476847, -21.7890625 15 C-21.7890625 15, -21.7890625 15, -21.7890625 15 C-21.7890625 8.930608856918886, -21.7890625 2.861217713837771, -21.7890625 -15 C-21.7890625 -15, -21.7890625 -15, -21.7890625 -15 C-21.785230385644873 -15.09265198280648, -21.781398271289746 -15.18530396561296, -21.771984965033347 -15.41289672736166 C-21.758782924614106 -15.518809717230923, -21.74558088419487 -15.624722707100183, -21.720869017013612 -15.822972951403669 C-21.701358575648925 -15.916022512996335, -21.681848134284234 -16.009072074589003, -21.636063829696653 -16.227427435703994 C-21.606461921465826 -16.326858492718557, -21.576860013234995 -16.42628954973312, -21.518148708503173 -16.623497346023417 C-21.461613863328104 -16.768383736953894, -21.40507901815303 -16.91327012788437, -21.36792913327529 -17.008477123264846 C-21.311084886273434 -17.124753889013256, -21.25424063927158 -17.241030654761666, -21.186431256032446 -17.379736965185366 C-21.11447407328751 -17.500496699216068, -21.042516890542576 -17.62125643324677, -20.974894891312644 -17.734740790612133 C-20.913288702540136 -17.821025626591574, -20.851682513767624 -17.90731046257102, -20.73476504698197 -18.07106356344834 C-20.666660796097815 -18.15147410052151, -20.598556545213665 -18.231884637594685, -20.46768205336566 -18.386407858128706 C-20.35099980746594 -18.503090104028423, -20.234317561566222 -18.61977234992814, -20.175470358128706 -18.678619553365657 C-20.055429699894674 -18.780288804713027, -19.935389041660642 -18.8819580560604, -19.86012606344834 -18.945702546981966 C-19.781064507083734 -19.002151413237062, -19.70200295071913 -19.058600279492158, -19.523803290612136 -19.185832391312644 C-19.405929177132215 -19.25607011742767, -19.288055063652294 -19.326307843542697, -19.168799465185366 -19.397368756032446 C-19.03234450516938 -19.4640775211228, -18.8958895451534 -19.530786286213154, -18.79753962326485 -19.578866633275286 C-18.645962726238963 -19.63801212202991, -18.494385829213076 -19.69715761078453, -18.41255984602342 -19.729086208503173 C-18.312067214250554 -19.759004161232763, -18.211574582477684 -19.78892211396235, -18.016489935703994 -19.847001329696653 C-17.931588485165918 -19.864803291835404, -17.84668703462784 -19.88260525397416, -17.612035451403674 -19.931806517013612 C-17.504661271178527 -19.94519069462077, -17.397287090953384 -19.958574872227924, -17.201959227361662 -19.982922465033347 C-17.096763159121906 -19.987273406599773, -16.991567090882153 -19.991624348166198, -16.7890625 -20 C-16.7890625 -20, -16.7890625 -20, -16.7890625 -20" stroke="none" stroke-width="0" fill="#ECECFF" style=""/><path d="M-16.7890625 -20 C-7.748343926590392 -20, 1.2923746468192157 -20, 16.7890625 -20 M-16.7890625 -20 C-7.791885234345141 -20, 1.2052920313097175 -20, 16.7890625 -20 M16.7890625 -20 C16.7890625 -20, 16.7890625 -20, 16.7890625 -20 M16.7890625 -20 C16.7890625 -20, 16.7890625 -20, 16.7890625 -20 M16.7890625 -20 C16.87397816137679 -19.996487862266083, 16.95889382275358 -19.99297572453216, 17.201959227361662 -19.982922465033347 M16.7890625 -20 C16.930048303881094 -19.99416878401782, 17.071034107762188 -19.98833756803564, 17.201959227361662 -19.982922465033347 M17.201959227361662 -19.982922465033347 C17.362094820703252 -19.962961584139848, 17.52223041404484 -19.94300070324635, 17.61203545140367 -19.931806517013612 M17.201959227361662 -19.982922465033347 C17.30985565590969 -19.969473189240635, 17.417752084457714 -19.95602391344792, 17.61203545140367 -19.931806517013612 M17.61203545140367 -19.931806517013612 C17.737987627550094 -19.90539712286496, 17.86393980369652 -19.878987728716314, 18.016489935703998 -19.847001329696653 M17.61203545140367 -19.931806517013612 C17.74822922931844 -19.903249684796886, 17.884423007233213 -19.87469285258016, 18.016489935703998 -19.847001329696653 M18.016489935703998 -19.847001329696653 C18.155565208954823 -19.805596826922983, 18.294640482205644 -19.764192324149313, 18.412559846023417 -19.729086208503173 M18.016489935703998 -19.847001329696653 C18.137150713518633 -19.811079059742244, 18.257811491333268 -19.775156789787836, 18.412559846023417 -19.729086208503173 M18.412559846023417 -19.729086208503173 C18.54260748756216 -19.678341461308083, 18.672655129100907 -19.62759671411299, 18.797539623264846 -19.578866633275286 M18.412559846023417 -19.729086208503173 C18.504332059312365 -19.69327657975651, 18.59610427260131 -19.657466951009848, 18.797539623264846 -19.578866633275286 M18.797539623264846 -19.578866633275286 C18.92386588424347 -19.51710948742014, 19.05019214522209 -19.45535234156499, 19.16879946518537 -19.397368756032446 M18.797539623264846 -19.578866633275286 C18.893743061278176 -19.531835638238068, 18.989946499291506 -19.48480464320085, 19.16879946518537 -19.397368756032446 M19.16879946518537 -19.397368756032446 C19.30136468985093 -19.31837702775936, 19.433929914516497 -19.239385299486276, 19.523803290612136 -19.185832391312644 M19.16879946518537 -19.397368756032446 C19.25645332883519 -19.34513839021079, 19.344107192485012 -19.292908024389128, 19.523803290612136 -19.185832391312644 M19.523803290612136 -19.185832391312644 C19.65283685516633 -19.093704196993432, 19.781870419720523 -19.001576002674216, 19.86012606344834 -18.94570254698197 M19.523803290612136 -19.185832391312644 C19.636671761342214 -19.105245852144645, 19.74954023207229 -19.024659312976645, 19.86012606344834 -18.94570254698197 M19.86012606344834 -18.94570254698197 C19.937042193950802 -18.880557907492605, 20.01395832445326 -18.815413268003244, 20.175470358128706 -18.678619553365657 M19.86012606344834 -18.94570254698197 C19.92746478167637 -18.888669561911296, 19.9948034999044 -18.831636576840623, 20.175470358128706 -18.678619553365657 M20.175470358128706 -18.678619553365657 C20.25192772590424 -18.602162185590124, 20.328385093679767 -18.525704817814596, 20.467682053365657 -18.386407858128706 M20.175470358128706 -18.678619553365657 C20.257022380722965 -18.597067530771398, 20.338574403317224 -18.51551550817714, 20.467682053365657 -18.386407858128706 M20.467682053365657 -18.386407858128706 C20.573565633870572 -18.26139135086085, 20.679449214375488 -18.136374843592996, 20.73476504698197 -18.07106356344834 M20.467682053365657 -18.386407858128706 C20.56620166905635 -18.27008596768744, 20.664721284747042 -18.153764077246173, 20.73476504698197 -18.07106356344834 M20.73476504698197 -18.07106356344834 C20.82799228031654 -17.940490698978593, 20.92121951365111 -17.80991783450885, 20.974894891312644 -17.734740790612136 M20.73476504698197 -18.07106356344834 C20.78404472787025 -18.00204307594073, 20.83332440875853 -17.933022588433122, 20.974894891312644 -17.734740790612136 M20.974894891312644 -17.734740790612136 C21.058705410502064 -17.594088591342956, 21.14251592969148 -17.45343639207378, 21.186431256032446 -17.37973696518537 M20.974894891312644 -17.734740790612136 C21.04867053559314 -17.610929284360754, 21.122446179873638 -17.48711777810937, 21.186431256032446 -17.37973696518537 M21.186431256032446 -17.37973696518537 C21.224118256928364 -17.302646972687242, 21.261805257824278 -17.225556980189115, 21.367929133275286 -17.008477123264846 M21.186431256032446 -17.37973696518537 C21.250199946843125 -17.24929602323333, 21.313968637653804 -17.118855081281296, 21.367929133275286 -17.008477123264846 M21.367929133275286 -17.008477123264846 C21.403245418595066 -16.917969240821577, 21.438561703914846 -16.827461358378308, 21.518148708503173 -16.623497346023417 M21.367929133275286 -17.008477123264846 C21.422380955277788 -16.868929063212676, 21.476832777280286 -16.729381003160505, 21.518148708503173 -16.623497346023417 M21.518148708503173 -16.623497346023417 C21.55288101988507 -16.506833568596235, 21.587613331266972 -16.390169791169058, 21.636063829696653 -16.227427435703994 M21.518148708503173 -16.623497346023417 C21.54711386011839 -16.52620511677825, 21.576079011733608 -16.428912887533087, 21.636063829696653 -16.227427435703994 M21.636063829696653 -16.227427435703994 C21.656260973050124 -16.13110284215246, 21.676458116403595 -16.034778248600926, 21.720869017013612 -15.82297295140367 M21.636063829696653 -16.227427435703994 C21.669985153665028 -16.065649223468746, 21.703906477633403 -15.903871011233496, 21.720869017013612 -15.82297295140367 M21.720869017013612 -15.82297295140367 C21.737425963084455 -15.690145327356136, 21.7539829091553 -15.557317703308602, 21.771984965033347 -15.412896727361662 M21.720869017013612 -15.82297295140367 C21.73649433795975 -15.697619263146478, 21.752119658905887 -15.572265574889288, 21.771984965033347 -15.412896727361662 M21.771984965033347 -15.412896727361662 C21.775600460392134 -15.325482109013707, 21.779215955750917 -15.238067490665754, 21.7890625 -15 M21.771984965033347 -15.412896727361662 C21.776938929988813 -15.293120897795507, 21.781892894944278 -15.17334506822935, 21.7890625 -15 M21.7890625 -15 C21.7890625 -15, 21.7890625 -15, 21.7890625 -15 M21.7890625 -15 C21.7890625 -15, 21.7890625 -15, 21.7890625 -15 M21.7890625 -15 C21.7890625 -4.179335964048201, 21.7890625 6.641328071903597, 21.7890625 15 M21.7890625 -15 C21.7890625 -7.7786764816047995, 21.7890625 -0.557352963209599, 21.7890625 15 M21.7890625 15 C21.7890625 15, 21.7890625 15, 21.7890625 15 M21.7890625 15 C21.7890625 15, 21.7890625 15, 21.7890625 15 M21.7890625 15 C21.783860889152162 15.125763355207607, 21.77865927830432 15.251526710415213, 21.771984965033347 15.412896727361662 M21.7890625 15 C21.7825843787971 15.15662653007898, 21.7761062575942 15.313253060157964, 21.771984965033347 15.412896727361662 M21.771984965033347 15.412896727361662 C21.758607753841346 15.520215019721423, 21.745230542649345 15.627533312081184, 21.720869017013612 15.822972951403669 M21.771984965033347 15.412896727361662 C21.760448866649075 15.505444745130465, 21.748912768264802 15.597992762899267, 21.720869017013612 15.822972951403669 M21.720869017013612 15.822972951403669 C21.688875160812064 15.975558648342377, 21.656881304610515 16.128144345281083, 21.636063829696653 16.227427435703994 M21.720869017013612 15.822972951403669 C21.70116768847261 15.916932895685163, 21.681466359931605 16.010892839966658, 21.636063829696653 16.227427435703994 M21.636063829696653 16.227427435703994 C21.596742929232597 16.35950401216719, 21.557422028768542 16.49158058863038, 21.518148708503173 16.623497346023417 M21.636063829696653 16.227427435703994 C21.609759054945904 16.315783616582667, 21.583454280195156 16.404139797461337, 21.518148708503173 16.623497346023417 M21.518148708503173 16.623497346023417 C21.481298633897083 16.717935993527657, 21.44444855929099 16.812374641031898, 21.367929133275286 17.008477123264846 M21.518148708503173 16.623497346023417 C21.471564879253382 16.742881468767944, 21.42498105000359 16.862265591512475, 21.367929133275286 17.008477123264846 M21.367929133275286 17.008477123264846 C21.302875609620497 17.14154623280675, 21.237822085965703 17.274615342348653, 21.186431256032446 17.379736965185366 M21.367929133275286 17.008477123264846 C21.315611652585034 17.115494240521564, 21.263294171894785 17.22251135777828, 21.186431256032446 17.379736965185366 M21.186431256032446 17.379736965185366 C21.106895586743978 17.51321504065804, 21.027359917455506 17.646693116130717, 20.974894891312644 17.734740790612133 M21.186431256032446 17.379736965185366 C21.103722761403034 17.518539728613877, 21.021014266773626 17.65734249204239, 20.974894891312644 17.734740790612133 M20.974894891312644 17.734740790612133 C20.879020012535975 17.86902191324969, 20.78314513375931 18.003303035887242, 20.73476504698197 18.07106356344834 M20.974894891312644 17.734740790612133 C20.905855338099638 17.831436701262856, 20.83681578488663 17.928132611913583, 20.73476504698197 18.07106356344834 M20.73476504698197 18.07106356344834 C20.64806694155176 18.17342782309974, 20.561368836121552 18.27579208275114, 20.467682053365657 18.386407858128706 M20.73476504698197 18.07106356344834 C20.67147436455937 18.145790730978394, 20.608183682136765 18.220517898508447, 20.467682053365657 18.386407858128706 M20.467682053365657 18.386407858128706 C20.383575800543532 18.47051411095083, 20.299469547721408 18.554620363772955, 20.175470358128706 18.678619553365657 M20.467682053365657 18.386407858128706 C20.377242476448988 18.476847435045375, 20.28680289953232 18.567287011962044, 20.175470358128706 18.678619553365657 M20.175470358128706 18.678619553365657 C20.086276956127186 18.754162511393595, 19.997083554125666 18.829705469421537, 19.86012606344834 18.94570254698197 M20.175470358128706 18.678619553365657 C20.101461279698597 18.741302045344572, 20.027452201268485 18.803984537323487, 19.86012606344834 18.94570254698197 M19.86012606344834 18.94570254698197 C19.753087235470858 19.022126801226833, 19.646048407493375 19.09855105547169, 19.523803290612136 19.185832391312644 M19.86012606344834 18.94570254698197 C19.77734751627875 19.00480529366227, 19.694568969109156 19.063908040342564, 19.523803290612136 19.185832391312644 M19.523803290612136 19.185832391312644 C19.434201136811403 19.23922368607767, 19.344598983010666 19.292614980842693, 19.16879946518537 19.397368756032446 M19.523803290612136 19.185832391312644 C19.388261005335576 19.266598062664915, 19.252718720059015 19.34736373401719, 19.16879946518537 19.397368756032446 M19.16879946518537 19.397368756032446 C19.05852526737924 19.45127852637802, 18.94825106957311 19.505188296723595, 18.797539623264846 19.578866633275286 M19.16879946518537 19.397368756032446 C19.081107452847895 19.440238768603887, 18.993415440510418 19.483108781175332, 18.797539623264846 19.578866633275286 M18.797539623264846 19.578866633275286 C18.709389548451657 19.613262899202883, 18.621239473638465 19.647659165130484, 18.412559846023417 19.729086208503173 M18.797539623264846 19.578866633275286 C18.679638859009973 19.624871654246306, 18.561738094755103 19.670876675217322, 18.412559846023417 19.729086208503173 M18.412559846023417 19.729086208503173 C18.265321069020125 19.77292109164469, 18.118082292016833 19.816755974786208, 18.016489935703998 19.847001329696653 M18.412559846023417 19.729086208503173 C18.319390539598672 19.75682391281332, 18.226221233173924 19.784561617123465, 18.016489935703998 19.847001329696653 M18.016489935703998 19.847001329696653 C17.89331112440803 19.872829210387618, 17.77013231311206 19.898657091078583, 17.61203545140367 19.931806517013612 M18.016489935703998 19.847001329696653 C17.888002467207855 19.873942318748973, 17.759514998711712 19.900883307801294, 17.61203545140367 19.931806517013612 M17.61203545140367 19.931806517013612 C17.49150155500969 19.94683105153054, 17.370967658615715 19.96185558604747, 17.201959227361662 19.982922465033347 M17.61203545140367 19.931806517013612 C17.486682044990346 19.94743180282795, 17.361328638577024 19.963057088642284, 17.201959227361662 19.982922465033347 M17.201959227361662 19.982922465033347 C17.065670162290886 19.988559422461396, 16.929381097220112 19.994196379889445, 16.7890625 20 M17.201959227361662 19.982922465033347 C17.06005000242278 19.98879187399299, 16.918140777483902 19.994661282952634, 16.7890625 20 M16.7890625 20 C16.7890625 20, 16.7890625 20, 16.7890625 20 M16.7890625 20 C16.7890625 20, 16.7890625 20, 16.7890625 20 M16.7890625 20 C6.605297442575191 20, -3.578467614849618 20, -16.7890625 20 M16.7890625 20 C9.294686433444875 20, 1.8003103668897502 20, -16.7890625 20 M-16.7890625 20 C-16.7890625 20, -16.7890625 20, -16.7890625 20 M-16.7890625 20 C-16.7890625 20, -16.7890625 20, -16.7890625 20 M-16.7890625 20 C-16.93025385996587 19.994160282155267, -17.071445219931736 19.98832056431053, -17.201959227361662 19.982922465033347 M-16.7890625 20 C-16.92963160491964 19.994186018814354, -17.070200709839273 19.988372037628704, -17.201959227361662 19.982922465033347 M-17.201959227361662 19.982922465033347 C-17.3265024564558 19.96739816771653, -17.451045685549936 19.951873870399712, -17.61203545140367 19.931806517013612 M-17.201959227361662 19.982922465033347 C-17.36046407488905 19.963164856393604, -17.518968922416445 19.943407247753857, -17.61203545140367 19.931806517013612 M-17.61203545140367 19.931806517013612 C-17.756157914434777 19.90158721435196, -17.900280377465883 19.871367911690303, -18.016489935703994 19.847001329696653 M-17.61203545140367 19.931806517013612 C-17.73650274245117 19.905708470529152, -17.860970033498663 19.879610424044696, -18.016489935703994 19.847001329696653 M-18.016489935703994 19.847001329696653 C-18.120615004018 19.8160019537541, -18.224740072332004 19.785002577811547, -18.412559846023417 19.729086208503173 M-18.016489935703994 19.847001329696653 C-18.16452368180101 19.802929774001658, -18.312557427898028 19.75885821830666, -18.412559846023417 19.729086208503173 M-18.412559846023417 19.729086208503173 C-18.54004516516246 19.679341282611002, -18.667530484301505 19.629596356718835, -18.797539623264846 19.578866633275286 M-18.412559846023417 19.729086208503173 C-18.49403600376257 19.6972941130989, -18.57551216150172 19.665502017694624, -18.797539623264846 19.578866633275286 M-18.797539623264846 19.578866633275286 C-18.882774171435436 19.53719800172955, -18.968008719606026 19.495529370183814, -19.16879946518537 19.397368756032446 M-18.797539623264846 19.578866633275286 C-18.904551347933314 19.52655178886079, -19.01156307260178 19.474236944446297, -19.16879946518537 19.397368756032446 M-19.16879946518537 19.397368756032446 C-19.274889953348023 19.334152546544285, -19.380980441510676 19.270936337056124, -19.523803290612133 19.185832391312644 M-19.16879946518537 19.397368756032446 C-19.30253563273429 19.317679297247466, -19.436271800283208 19.237989838462482, -19.523803290612133 19.185832391312644 M-19.523803290612133 19.185832391312644 C-19.638452134824824 19.103974689910743, -19.753100979037516 19.022116988508845, -19.86012606344834 18.94570254698197 M-19.523803290612133 19.185832391312644 C-19.59253710892263 19.136757388297042, -19.661270927233133 19.087682385281436, -19.86012606344834 18.94570254698197 M-19.86012606344834 18.94570254698197 C-19.925645283990665 18.890210597842415, -19.991164504532993 18.83471864870286, -20.175470358128706 18.67861955336566 M-19.86012606344834 18.94570254698197 C-19.970687040366677 18.85206217615356, -20.081248017285013 18.75842180532515, -20.175470358128706 18.67861955336566 M-20.175470358128706 18.67861955336566 C-20.281941189554846 18.572148721939516, -20.38841202098099 18.465677890513376, -20.467682053365657 18.386407858128706 M-20.175470358128706 18.67861955336566 C-20.246007669549424 18.608082241944942, -20.316544980970143 18.537544930524223, -20.467682053365657 18.386407858128706 M-20.467682053365657 18.386407858128706 C-20.564559785561254 18.27202453586693, -20.661437517756855 18.157641213605153, -20.734765046981966 18.07106356344834 M-20.467682053365657 18.386407858128706 C-20.554987357980572 18.28332667975463, -20.642292662595487 18.180245501380558, -20.734765046981966 18.07106356344834 M-20.734765046981966 18.07106356344834 C-20.81786820118674 17.95467035405161, -20.900971355391516 17.838277144654878, -20.974894891312644 17.734740790612133 M-20.734765046981966 18.07106356344834 C-20.810730579774614 17.964667214839462, -20.886696112567257 17.858270866230583, -20.974894891312644 17.734740790612133 M-20.974894891312644 17.734740790612133 C-21.05663899340311 17.59755648669054, -21.13838309549357 17.460372182768946, -21.186431256032446 17.37973696518537 M-20.974894891312644 17.734740790612133 C-21.046287889973044 17.614927879641947, -21.117680888633444 17.495114968671764, -21.186431256032446 17.37973696518537 M-21.186431256032446 17.37973696518537 C-21.23187647810689 17.286777277613776, -21.277321700181336 17.193817590042187, -21.367929133275286 17.00847712326485 M-21.186431256032446 17.37973696518537 C-21.238988035207473 17.272230355054244, -21.291544814382505 17.16472374492312, -21.367929133275286 17.00847712326485 M-21.367929133275286 17.00847712326485 C-21.425443525478435 16.86108036844807, -21.48295791768159 16.713683613631293, -21.518148708503173 16.623497346023417 M-21.367929133275286 17.00847712326485 C-21.414112709971004 16.890118759905366, -21.46029628666672 16.77176039654588, -21.518148708503173 16.623497346023417 M-21.518148708503173 16.623497346023417 C-21.563856891870905 16.46996626447861, -21.60956507523864 16.31643518293381, -21.636063829696653 16.227427435703994 M-21.518148708503173 16.623497346023417 C-21.55655186612521 16.494503413426887, -21.59495502374725 16.365509480830355, -21.636063829696653 16.227427435703994 M-21.636063829696653 16.227427435703994 C-21.665065536848278 16.089111951935312, -21.6940672439999 15.950796468166631, -21.720869017013612 15.82297295140367 M-21.636063829696653 16.227427435703994 C-21.660333547266443 16.111679845086496, -21.68460326483623 15.995932254469, -21.720869017013612 15.82297295140367 M-21.720869017013612 15.82297295140367 C-21.739064529608658 15.676999974504092, -21.757260042203704 15.531026997604512, -21.771984965033347 15.412896727361664 M-21.720869017013612 15.82297295140367 C-21.74020734564337 15.667831765707334, -21.759545674273127 15.512690580010997, -21.771984965033347 15.412896727361664 M-21.771984965033347 15.412896727361664 C-21.777176313111898 15.287381503038338, -21.78236766119045 15.161866278715012, -21.7890625 15 M-21.771984965033347 15.412896727361664 C-21.77742352868513 15.281404381554474, -21.782862092336913 15.149912035747283, -21.7890625 15 M-21.7890625 15 C-21.7890625 15, -21.7890625 15, -21.7890625 15 M-21.7890625 15 C-21.7890625 15, -21.7890625 15, -21.7890625 15 M-21.7890625 15 C-21.7890625 6.1970695978865304, -21.7890625 -2.605860804226939, -21.7890625 -15 M-21.7890625 15 C-21.7890625 3.85915562018978, -21.7890625 -7.28168875962044, -21.7890625 -15 M-21.7890625 -15 C-21.7890625 -15, -21.7890625 -15, -21.7890625 -15 M-21.7890625 -15 C-21.7890625 -15, -21.7890625 -15, -21.7890625 -15 M-21.7890625 -15 C-21.784727215730914 -15.104817509692285, -21.780391931461832 -15.209635019384569, -21.771984965033347 -15.41289672736166 M-21.7890625 -15 C-21.783935533942785 -15.123958610563632, -21.778808567885573 -15.247917221127265, -21.771984965033347 -15.41289672736166 M-21.771984965033347 -15.41289672736166 C-21.761060002152018 -15.500541928120644, -21.750135039270685 -15.588187128879627, -21.720869017013612 -15.822972951403669 M-21.771984965033347 -15.41289672736166 C-21.7557938529742 -15.54278945856352, -21.739602740915053 -15.67268218976538, -21.720869017013612 -15.822972951403669 M-21.720869017013612 -15.822972951403669 C-21.691764017258528 -15.96178106018724, -21.662659017503444 -16.100589168970814, -21.636063829696653 -16.227427435703994 M-21.720869017013612 -15.822972951403669 C-21.692626505436323 -15.957667665450412, -21.664383993859033 -16.092362379497153, -21.636063829696653 -16.227427435703994 M-21.636063829696653 -16.227427435703994 C-21.598610841357296 -16.353229805939637, -21.561157853017942 -16.47903217617528, -21.518148708503173 -16.623497346023417 M-21.636063829696653 -16.227427435703994 C-21.601633743885063 -16.343076055335317, -21.567203658073474 -16.45872467496664, -21.518148708503173 -16.623497346023417 M-21.518148708503173 -16.623497346023417 C-21.483542625222608 -16.7121851366282, -21.448936541942043 -16.80087292723298, -21.36792913327529 -17.008477123264846 M-21.518148708503173 -16.623497346023417 C-21.480755960714703 -16.719326745701935, -21.443363212926233 -16.815156145380456, -21.36792913327529 -17.008477123264846 M-21.36792913327529 -17.008477123264846 C-21.29937819316936 -17.148700312504563, -21.230827253063435 -17.288923501744275, -21.186431256032446 -17.379736965185366 M-21.36792913327529 -17.008477123264846 C-21.32004319448193 -17.1064293766835, -21.272157255688565 -17.20438163010216, -21.186431256032446 -17.379736965185366 M-21.186431256032446 -17.379736965185366 C-21.125998032455104 -17.481157000370544, -21.065564808877767 -17.58257703555572, -20.974894891312644 -17.734740790612133 M-21.186431256032446 -17.379736965185366 C-21.107264271794552 -17.51259630730926, -21.02809728755666 -17.645455649433156, -20.974894891312644 -17.734740790612133 M-20.974894891312644 -17.734740790612133 C-20.895909843071877 -17.845366233738456, -20.816924794831113 -17.95599167686478, -20.73476504698197 -18.07106356344834 M-20.974894891312644 -17.734740790612133 C-20.90537020298471 -17.83211617526788, -20.83584551465677 -17.92949155992363, -20.73476504698197 -18.07106356344834 M-20.73476504698197 -18.07106356344834 C-20.633090580110945 -18.191110379639515, -20.531416113239917 -18.31115719583069, -20.46768205336566 -18.386407858128706 M-20.73476504698197 -18.07106356344834 C-20.68107221295646 -18.134458572789473, -20.627379378930954 -18.197853582130605, -20.46768205336566 -18.386407858128706 M-20.46768205336566 -18.386407858128706 C-20.39747601979348 -18.456613891700886, -20.3272699862213 -18.526819925273067, -20.175470358128706 -18.678619553365657 M-20.46768205336566 -18.386407858128706 C-20.371542432142512 -18.48254747935185, -20.275402810919367 -18.578687100575, -20.175470358128706 -18.678619553365657 M-20.175470358128706 -18.678619553365657 C-20.06380995008148 -18.77319109486096, -19.95214954203426 -18.867762636356264, -19.86012606344834 -18.945702546981966 M-20.175470358128706 -18.678619553365657 C-20.06316333532668 -18.773738749622254, -19.95085631252466 -18.868857945878847, -19.86012606344834 -18.945702546981966 M-19.86012606344834 -18.945702546981966 C-19.75998660039713 -19.017200749351854, -19.659847137345924 -19.08869895172174, -19.523803290612136 -19.185832391312644 M-19.86012606344834 -18.945702546981966 C-19.785487809924394 -18.998993235711357, -19.710849556400444 -19.052283924440744, -19.523803290612136 -19.185832391312644 M-19.523803290612136 -19.185832391312644 C-19.43731380492654 -19.23736893846512, -19.350824319240942 -19.288905485617597, -19.168799465185366 -19.397368756032446 M-19.523803290612136 -19.185832391312644 C-19.40721221207129 -19.25530559454825, -19.290621133530443 -19.324778797783857, -19.168799465185366 -19.397368756032446 M-19.168799465185366 -19.397368756032446 C-19.071299808921957 -19.44503343355904, -18.973800152658544 -19.492698111085634, -18.79753962326485 -19.578866633275286 M-19.168799465185366 -19.397368756032446 C-19.08305167722083 -19.439288295224525, -18.997303889256294 -19.481207834416605, -18.79753962326485 -19.578866633275286 M-18.79753962326485 -19.578866633275286 C-18.696566461123076 -19.618266483405183, -18.595593298981303 -19.657666333535083, -18.41255984602342 -19.729086208503173 M-18.79753962326485 -19.578866633275286 C-18.646335375512972 -19.637866713831972, -18.495131127761095 -19.696866794388658, -18.41255984602342 -19.729086208503173 M-18.41255984602342 -19.729086208503173 C-18.287816486428493 -19.766223915714647, -18.163073126833563 -19.803361622926122, -18.016489935703994 -19.847001329696653 M-18.41255984602342 -19.729086208503173 C-18.262483810324323 -19.773765780156126, -18.112407774625225 -19.818445351809082, -18.016489935703994 -19.847001329696653 M-18.016489935703994 -19.847001329696653 C-17.91692323671305 -19.867878271073792, -17.8173565377221 -19.888755212450928, -17.612035451403674 -19.931806517013612 M-18.016489935703994 -19.847001329696653 C-17.926509742506585 -19.865868192187058, -17.836529549309176 -19.884735054677467, -17.612035451403674 -19.931806517013612 M-17.612035451403674 -19.931806517013612 C-17.476057536480965 -19.94875614643253, -17.34007962155826 -19.965705775851447, -17.201959227361662 -19.982922465033347 M-17.612035451403674 -19.931806517013612 C-17.467776300722505 -19.949788401393317, -17.323517150041333 -19.967770285773025, -17.201959227361662 -19.982922465033347 M-17.201959227361662 -19.982922465033347 C-17.085483279781787 -19.987739945860284, -16.96900733220191 -19.99255742668722, -16.7890625 -20 M-17.201959227361662 -19.982922465033347 C-17.06379524744028 -19.988636969513234, -16.9256312675189 -19.994351473993124, -16.7890625 -20 M-16.7890625 -20 C-16.7890625 -20, -16.7890625 -20, -16.7890625 -20 M-16.7890625 -20 C-16.7890625 -20, -16.7890625 -20, -16.7890625 -20" stroke="#9370DB" stroke-width="1.3" fill="none" stroke-dasharray="0 0" style=""/></g><g class="label" style="" transform="translate(-13.7890625, -12)"><rect/><foreignObject width="27.578125" height="24"><div xmlns="http://www.w3.org/1999/xhtml" style="display: table-cell; white-space: nowrap; line-height: 1.5; max-width: 200px; text-align: center;"><span class="nodeLabel"><p>OFF</p></span></div></foreignObject></g></g><g class="node  statediagram-state" id="state-ROLLING-4" transform="translate(373.5546875, 262)"><g class="basic label-container outer-path"><path d="M-33.890625 -20 C-13.942645194777384 -20, 6.005334610445232 -20, 33.890625 -20 C33.890625 -20, 33.890625 -20, 33.890625 -20 C34.01031913702955 -19.99504941387284, 34.130013274059095 -19.990098827745683, 34.30352172736166 -19.982922465033347 C34.417467151185384 -19.968719182765845, 34.5314125750091 -19.954515900498343, 34.71359795140367 -19.931806517013612 C34.84168886769428 -19.904948676214993, 34.96977978398489 -19.878090835416373, 35.118052435703994 -19.847001329696653 C35.21201139264072 -19.81902853624342, 35.305970349577436 -19.79105574279018, 35.51412234602342 -19.729086208503173 C35.61532958455431 -19.689595021482813, 35.7165368230852 -19.650103834462453, 35.899102123264846 -19.578866633275286 C36.025006079019136 -19.51731593986425, 36.150910034773425 -19.45576524645321, 36.270361965185366 -19.397368756032446 C36.39008327780253 -19.326030338143365, 36.50980459041969 -19.25469192025428, 36.625365790612136 -19.185832391312644 C36.75232082986914 -19.095188235531296, 36.87927586912615 -19.00454407974995, 36.96168856344834 -18.94570254698197 C37.03684599863924 -18.882047446439703, 37.11200343383013 -18.81839234589744, 37.277032858128706 -18.678619553365657 C37.33637440582572 -18.61927800566864, 37.39571595352274 -18.559936457971624, 37.56924455336566 -18.386407858128706 C37.64877748772594 -18.292503499973535, 37.72831042208621 -18.198599141818363, 37.83632754698197 -18.07106356344834 C37.88497526915412 -18.00292818919402, 37.93362299132627 -17.934792814939698, 38.076457391312644 -17.734740790612136 C38.13212237358607 -17.641322896835074, 38.187787355859506 -17.547905003058013, 38.28799375603245 -17.37973696518537 C38.34271050597511 -17.267812064229435, 38.39742725591777 -17.1558871632735, 38.46949163327529 -17.008477123264846 C38.51189054661629 -16.89981802082406, 38.554289459957296 -16.791158918383275, 38.619711208503176 -16.623497346023417 C38.665020193351815 -16.47130714866765, 38.71032917820045 -16.31911695131188, 38.73762632969665 -16.227427435703994 C38.75714139141355 -16.13435583864122, 38.77665645313045 -16.041284241578445, 38.82243151701361 -15.82297295140367 C38.838113903795225 -15.697161454121321, 38.85379629057684 -15.571349956838972, 38.87354746503335 -15.412896727361662 C38.88008309145387 -15.254879849307494, 38.88661871787439 -15.096862971253328, 38.890625 -15 C38.890625 -15, 38.890625 -15, 38.890625 -15 C38.890625 -8.055054035891857, 38.890625 -1.1101080717837117, 38.890625 15 C38.890625 15, 38.890625 15, 38.890625 15 C38.88525747486818 15.129774792748815, 38.879889949736366 15.25954958549763, 38.87354746503335 15.412896727361662 C38.8583265472402 15.535006102945486, 38.84310562944707 15.657115478529308, 38.82243151701361 15.822972951403669 C38.79186519856513 15.968750408610822, 38.761298880116634 16.114527865817976, 38.73762632969665 16.227427435703994 C38.70841164778942 16.32555782242533, 38.679196965882184 16.423688209146672, 38.619711208503176 16.623497346023417 C38.58639307000548 16.70888441703253, 38.55307493150779 16.79427148804164, 38.46949163327529 17.008477123264846 C38.422748056525606 17.10409263777397, 38.37600447977592 17.19970815228309, 38.28799375603245 17.379736965185366 C38.24496733804779 17.451944611370433, 38.201940920063144 17.5241522575555, 38.076457391312644 17.734740790612133 C37.99742199848268 17.84543674572285, 37.91838660565272 17.956132700833567, 37.83632754698197 18.07106356344834 C37.73989880391842 18.184916765243635, 37.64347006085487 18.298769967038933, 37.56924455336566 18.386407858128706 C37.47982834828634 18.475824063208023, 37.39041214320702 18.56524026828734, 37.277032858128706 18.678619553365657 C37.158503707268785 18.779008623269572, 37.03997455640886 18.879397693173487, 36.96168856344834 18.94570254698197 C36.86872816151525 19.01207499823427, 36.775767759582166 19.078447449486568, 36.625365790612136 19.185832391312644 C36.529211602539974 19.24312785108105, 36.43305741446781 19.300423310849453, 36.270361965185366 19.397368756032446 C36.16873979323553 19.447048808672374, 36.06711762128569 19.4967288613123, 35.899102123264846 19.578866633275286 C35.82133237524956 19.609212483117446, 35.743562627234276 19.639558332959606, 35.51412234602342 19.729086208503173 C35.38586094290862 19.767271282649627, 35.25759953979383 19.805456356796082, 35.118052435703994 19.847001329696653 C35.00692905971328 19.870301451421074, 34.895805683722564 19.893601573145496, 34.71359795140367 19.931806517013612 C34.55764998327939 19.951245410968134, 34.4017020151551 19.97068430492266, 34.30352172736166 19.982922465033347 C34.20966305433162 19.9868044884653, 34.11580438130158 19.990686511897252, 33.890625 20 C33.890625 20, 33.890625 20, 33.890625 20 C18.92949526488232 20, 3.9683655297646396 20, -33.890625 20 C-33.890625 20, -33.890625 20, -33.890625 20 C-34.05070019587828 19.993379240924547, -34.210775391756556 19.98675848184909, -34.30352172736166 19.982922465033347 C-34.40013795804695 19.970879264437876, -34.49675418873223 19.9588360638424, -34.71359795140367 19.931806517013612 C-34.8709879871973 19.898805296887712, -35.028378022990935 19.865804076761815, -35.118052435703994 19.847001329696653 C-35.258424946776884 19.805210622490332, -35.39879745784977 19.76341991528401, -35.51412234602342 19.729086208503173 C-35.60340830751818 19.69424671821705, -35.69269426901293 19.65940722793093, -35.899102123264846 19.578866633275286 C-35.9742281744 19.542139744807812, -36.04935422553514 19.505412856340342, -36.270361965185366 19.397368756032446 C-36.346140428237455 19.35221459303484, -36.42191889128955 19.30706043003724, -36.625365790612136 19.185832391312644 C-36.74312521094062 19.10175378125159, -36.860884631269094 19.017675171190533, -36.96168856344834 18.94570254698197 C-37.04959703566828 18.87124786896557, -37.13750550788821 18.796793190949163, -37.277032858128706 18.67861955336566 C-37.338858120352235 18.616794291142128, -37.40068338257577 18.554969028918595, -37.56924455336566 18.386407858128706 C-37.667324964844056 18.270604535120995, -37.765405376322455 18.154801212113284, -37.83632754698197 18.07106356344834 C-37.91096904230123 17.96652164470272, -37.9856105376205 17.8619797259571, -38.076457391312644 17.734740790612133 C-38.149262594193715 17.612557895165352, -38.222067797074786 17.49037499971857, -38.28799375603244 17.37973696518537 C-38.35620484698108 17.240208948508165, -38.42441593792971 17.100680931830965, -38.46949163327528 17.00847712326485 C-38.51095126314832 16.90222519804924, -38.55241089302136 16.795973272833628, -38.619711208503176 16.623497346023417 C-38.64545748573273 16.53701712524974, -38.67120376296227 16.450536904476067, -38.73762632969665 16.227427435703994 C-38.75635358467167 16.13811306127815, -38.775080839646684 16.048798686852304, -38.82243151701361 15.82297295140367 C-38.84220123644639 15.664370945387164, -38.86197095587918 15.505768939370656, -38.87354746503335 15.412896727361664 C-38.878675042836136 15.288923326153695, -38.883802620638924 15.164949924945725, -38.890625 15 C-38.890625 15, -38.890625 15, -38.890625 15 C-38.890625 5.821364818926181, -38.890625 -3.357270362147638, -38.890625 -15 C-38.890625 -15, -38.890625 -15, -38.890625 -15 C-38.88555452712644 -15.12259273131382, -38.88048405425288 -15.245185462627639, -38.87354746503335 -15.41289672736166 C-38.85991239687271 -15.522283669842118, -38.84627732871208 -15.631670612322575, -38.82243151701361 -15.822972951403669 C-38.79066161747689 -15.974490550030891, -38.75889171794017 -16.126008148658112, -38.73762632969665 -16.227427435703994 C-38.696306918478975 -16.36621689145652, -38.6549875072613 -16.505006347209047, -38.619711208503176 -16.623497346023417 C-38.58111003373549 -16.722423678632044, -38.54250885896781 -16.821350011240668, -38.46949163327529 -17.008477123264846 C-38.42625182340313 -17.096925568071356, -38.383012013530966 -17.18537401287787, -38.28799375603245 -17.379736965185366 C-38.23150641761239 -17.474534950646927, -38.17501907919232 -17.569332936108488, -38.076457391312644 -17.734740790612133 C-37.98825997427955 -17.858268959033854, -37.90006255724646 -17.98179712745558, -37.83632754698197 -18.07106356344834 C-37.77317163031579 -18.145631613350464, -37.710015713649604 -18.220199663252583, -37.56924455336566 -18.386407858128706 C-37.476871728117246 -18.478780683377114, -37.38449890286884 -18.57115350862552, -37.277032858128706 -18.678619553365657 C-37.2027965038758 -18.741494538147364, -37.1285601496229 -18.80436952292907, -36.96168856344834 -18.945702546981966 C-36.83291368629627 -19.03764604204612, -36.70413880914421 -19.12958953711027, -36.625365790612136 -19.185832391312644 C-36.51010369826843 -19.254513690662233, -36.394841605924725 -19.323194990011825, -36.270361965185366 -19.397368756032446 C-36.134722040078785 -19.463679074834694, -35.999082114972204 -19.529989393636946, -35.899102123264846 -19.578866633275286 C-35.763859515822325 -19.631638462456294, -35.62861690837981 -19.684410291637302, -35.51412234602342 -19.729086208503173 C-35.36329192864177 -19.773990369313765, -35.21246151126012 -19.818894530124357, -35.118052435703994 -19.847001329696653 C-35.00082935005868 -19.87158042603977, -34.88360626441336 -19.896159522382884, -34.71359795140367 -19.931806517013612 C-34.565746394000996 -19.950236194424164, -34.41789483659833 -19.96866587183472, -34.30352172736166 -19.982922465033347 C-34.15634967083329 -19.98900954631766, -34.00917761430493 -19.995096627601974, -33.890625 -20 C-33.890625 -20, -33.890625 -20, -33.890625 -20" stroke="none" stroke-width="0" fill="#ECECFF" style=""/><path d="M-33.890625 -20 C-13.12070751930251 -20, 7.64920996139498 -20, 33.890625 -20 M-33.890625 -20 C-17.986492462249096 -20, -2.0823599244981956 -20, 33.890625 -20 M33.890625 -20 C33.890625 -20, 33.890625 -20, 33.890625 -20 M33.890625 -20 C33.890625 -20, 33.890625 -20, 33.890625 -20 M33.890625 -20 C33.99492802609314 -19.99568599492998, 34.09923105218628 -19.991371989859957, 34.30352172736166 -19.982922465033347 M33.890625 -20 C34.01249172305677 -19.99495955505007, 34.13435844611354 -19.989919110100136, 34.30352172736166 -19.982922465033347 M34.30352172736166 -19.982922465033347 C34.39202593537246 -19.971890427009743, 34.480530143383255 -19.96085838898614, 34.71359795140367 -19.931806517013612 M34.30352172736166 -19.982922465033347 C34.409374175985086 -19.96972797107253, 34.515226624608516 -19.956533477111716, 34.71359795140367 -19.931806517013612 M34.71359795140367 -19.931806517013612 C34.87081938919648 -19.898840648170975, 35.02804082698929 -19.865874779328337, 35.118052435703994 -19.847001329696653 M34.71359795140367 -19.931806517013612 C34.85198778536388 -19.902789220266214, 34.99037761932409 -19.873771923518813, 35.118052435703994 -19.847001329696653 M35.118052435703994 -19.847001329696653 C35.22441660440973 -19.815335344685405, 35.33078077311547 -19.783669359674157, 35.51412234602342 -19.729086208503173 M35.118052435703994 -19.847001329696653 C35.24826079233237 -19.808236622375524, 35.37846914896073 -19.769471915054396, 35.51412234602342 -19.729086208503173 M35.51412234602342 -19.729086208503173 C35.66013709319121 -19.672111077358046, 35.80615184035899 -19.615135946212916, 35.899102123264846 -19.578866633275286 M35.51412234602342 -19.729086208503173 C35.624295290535926 -19.686096592152765, 35.73446823504844 -19.643106975802354, 35.899102123264846 -19.578866633275286 M35.899102123264846 -19.578866633275286 C36.0124055104854 -19.523475982461626, 36.125708897705955 -19.468085331647966, 36.270361965185366 -19.397368756032446 M35.899102123264846 -19.578866633275286 C36.01304911043083 -19.523161345620526, 36.126996097596816 -19.467456057965766, 36.270361965185366 -19.397368756032446 M36.270361965185366 -19.397368756032446 C36.41106648645347 -19.313527059698853, 36.551771007721584 -19.229685363365256, 36.625365790612136 -19.185832391312644 M36.270361965185366 -19.397368756032446 C36.360056593057216 -19.343922358681382, 36.44975122092907 -19.290475961330316, 36.625365790612136 -19.185832391312644 M36.625365790612136 -19.185832391312644 C36.72816945759299 -19.11243198389879, 36.83097312457384 -19.039031576484938, 36.96168856344834 -18.94570254698197 M36.625365790612136 -19.185832391312644 C36.748745714885956 -19.09774081856675, 36.87212563915977 -19.009649245820853, 36.96168856344834 -18.94570254698197 M36.96168856344834 -18.94570254698197 C37.04832798177699 -18.87232270278391, 37.134967400105644 -18.798942858585853, 37.277032858128706 -18.678619553365657 M36.96168856344834 -18.94570254698197 C37.056536175396275 -18.86537071741109, 37.15138378734421 -18.78503888784021, 37.277032858128706 -18.678619553365657 M37.277032858128706 -18.678619553365657 C37.37717563544388 -18.57847677605048, 37.47731841275906 -18.4783339987353, 37.56924455336566 -18.386407858128706 M37.277032858128706 -18.678619553365657 C37.37642575906 -18.57922665243436, 37.4758186599913 -18.47983375150307, 37.56924455336566 -18.386407858128706 M37.56924455336566 -18.386407858128706 C37.652613290577285 -18.28797457610491, 37.735982027788914 -18.189541294081117, 37.83632754698197 -18.07106356344834 M37.56924455336566 -18.386407858128706 C37.64302657239523 -18.29929359287377, 37.7168085914248 -18.212179327618834, 37.83632754698197 -18.07106356344834 M37.83632754698197 -18.07106356344834 C37.88852812591269 -17.99795210369384, 37.940728704843416 -17.92484064393934, 38.076457391312644 -17.734740790612136 M37.83632754698197 -18.07106356344834 C37.927508559631384 -17.9433566093638, 38.018689572280806 -17.815649655279262, 38.076457391312644 -17.734740790612136 M38.076457391312644 -17.734740790612136 C38.14709744457403 -17.61619148506196, 38.217737497835415 -17.497642179511782, 38.28799375603245 -17.37973696518537 M38.076457391312644 -17.734740790612136 C38.14756748079125 -17.61540266250928, 38.218677570269854 -17.496064534406422, 38.28799375603245 -17.37973696518537 M38.28799375603245 -17.37973696518537 C38.34115664441728 -17.270990538849023, 38.394319532802115 -17.16224411251268, 38.46949163327529 -17.008477123264846 M38.28799375603245 -17.37973696518537 C38.341771324074394 -17.269733191513634, 38.39554889211633 -17.1597294178419, 38.46949163327529 -17.008477123264846 M38.46949163327529 -17.008477123264846 C38.52206861722753 -16.87373386134806, 38.57464560117977 -16.738990599431276, 38.619711208503176 -16.623497346023417 M38.46949163327529 -17.008477123264846 C38.501011298722354 -16.927699143669795, 38.53253096416942 -16.846921164074743, 38.619711208503176 -16.623497346023417 M38.619711208503176 -16.623497346023417 C38.65722812982581 -16.497480228682406, 38.69474505114845 -16.371463111341395, 38.73762632969665 -16.227427435703994 M38.619711208503176 -16.623497346023417 C38.66534609593849 -16.47021246117574, 38.71098098337381 -16.316927576328062, 38.73762632969665 -16.227427435703994 M38.73762632969665 -16.227427435703994 C38.75966565727101 -16.122317062737103, 38.78170498484537 -16.017206689770212, 38.82243151701361 -15.82297295140367 M38.73762632969665 -16.227427435703994 C38.7679688981152 -16.082717091321364, 38.79831146653375 -15.938006746938731, 38.82243151701361 -15.82297295140367 M38.82243151701361 -15.82297295140367 C38.835726269369616 -15.716316182686034, 38.84902102172562 -15.6096594139684, 38.87354746503335 -15.412896727361662 M38.82243151701361 -15.82297295140367 C38.83569379917893 -15.716576673857707, 38.84895608134425 -15.610180396311744, 38.87354746503335 -15.412896727361662 M38.87354746503335 -15.412896727361662 C38.87958179427267 -15.267000097689873, 38.88561612351198 -15.121103468018084, 38.890625 -15 M38.87354746503335 -15.412896727361662 C38.87796708973308 -15.306040054062372, 38.882386714432826 -15.19918338076308, 38.890625 -15 M38.890625 -15 C38.890625 -15, 38.890625 -15, 38.890625 -15 M38.890625 -15 C38.890625 -15, 38.890625 -15, 38.890625 -15 M38.890625 -15 C38.890625 -3.2781483032458105, 38.890625 8.443703393508379, 38.890625 15 M38.890625 -15 C38.890625 -3.228607533056225, 38.890625 8.54278493388755, 38.890625 15 M38.890625 15 C38.890625 15, 38.890625 15, 38.890625 15 M38.890625 15 C38.890625 15, 38.890625 15, 38.890625 15 M38.890625 15 C38.88619298014966 15.107156360410384, 38.88176096029932 15.214312720820766, 38.87354746503335 15.412896727361662 M38.890625 15 C38.88708131524242 15.085678398086353, 38.88353763048484 15.171356796172704, 38.87354746503335 15.412896727361662 M38.87354746503335 15.412896727361662 C38.86286952257392 15.498560213884684, 38.85219158011449 15.584223700407703, 38.82243151701361 15.822972951403669 M38.87354746503335 15.412896727361662 C38.8588689398776 15.530654773598998, 38.84419041472186 15.648412819836334, 38.82243151701361 15.822972951403669 M38.82243151701361 15.822972951403669 C38.79143115124094 15.970820475221355, 38.760430785468266 16.11866799903904, 38.73762632969665 16.227427435703994 M38.82243151701361 15.822972951403669 C38.7949272236017 15.954146941579362, 38.767422930189774 16.085320931755053, 38.73762632969665 16.227427435703994 M38.73762632969665 16.227427435703994 C38.702495658223675 16.345429281090166, 38.66736498675069 16.463431126476337, 38.619711208503176 16.623497346023417 M38.73762632969665 16.227427435703994 C38.70180708842109 16.34774214628672, 38.66598784714554 16.468056856869445, 38.619711208503176 16.623497346023417 M38.619711208503176 16.623497346023417 C38.58088690007311 16.72299552119988, 38.54206259164305 16.82249369637634, 38.46949163327529 17.008477123264846 M38.619711208503176 16.623497346023417 C38.560456733767886 16.7753535501802, 38.50120225903259 16.927209754336985, 38.46949163327529 17.008477123264846 M38.46949163327529 17.008477123264846 C38.406650083739905 17.137021567425652, 38.34380853420452 17.265566011586458, 38.28799375603245 17.379736965185366 M38.46949163327529 17.008477123264846 C38.41482817255233 17.1202930193796, 38.36016471182938 17.23210891549435, 38.28799375603245 17.379736965185366 M38.28799375603245 17.379736965185366 C38.22856506568186 17.479471176097544, 38.16913637533128 17.579205387009722, 38.076457391312644 17.734740790612133 M38.28799375603245 17.379736965185366 C38.230204848224275 17.476719265917968, 38.172415940416094 17.57370156665057, 38.076457391312644 17.734740790612133 M38.076457391312644 17.734740790612133 C37.98134573316507 17.86795295624862, 37.8862340750175 18.0011651218851, 37.83632754698197 18.07106356344834 M38.076457391312644 17.734740790612133 C38.01411701205232 17.822053924349987, 37.95177663279199 17.90936705808784, 37.83632754698197 18.07106356344834 M37.83632754698197 18.07106356344834 C37.76600753644265 18.154090243002837, 37.69568752590333 18.237116922557334, 37.56924455336566 18.386407858128706 M37.83632754698197 18.07106356344834 C37.73538041177595 18.19025162076537, 37.634433276569936 18.3094396780824, 37.56924455336566 18.386407858128706 M37.56924455336566 18.386407858128706 C37.46133830279006 18.4943141087043, 37.353432052214465 18.602220359279897, 37.277032858128706 18.678619553365657 M37.56924455336566 18.386407858128706 C37.49310467037476 18.462547741119604, 37.41696478738386 18.538687624110498, 37.277032858128706 18.678619553365657 M37.277032858128706 18.678619553365657 C37.20908281654113 18.736170302910562, 37.14113277495355 18.793721052455464, 36.96168856344834 18.94570254698197 M37.277032858128706 18.678619553365657 C37.188823413286485 18.753329142190065, 37.100613968444264 18.828038731014473, 36.96168856344834 18.94570254698197 M36.96168856344834 18.94570254698197 C36.84409659169143 19.02966160106088, 36.72650461993452 19.11362065513979, 36.625365790612136 19.185832391312644 M36.96168856344834 18.94570254698197 C36.83361261199072 19.037147018691886, 36.705536660533106 19.1285914904018, 36.625365790612136 19.185832391312644 M36.625365790612136 19.185832391312644 C36.536667347603064 19.23868519132935, 36.447968904593985 19.29153799134605, 36.270361965185366 19.397368756032446 M36.625365790612136 19.185832391312644 C36.51926000369161 19.249057716881794, 36.41315421677109 19.312283042450947, 36.270361965185366 19.397368756032446 M36.270361965185366 19.397368756032446 C36.1945158019432 19.434447685857595, 36.118669638701036 19.471526615682745, 35.899102123264846 19.578866633275286 M36.270361965185366 19.397368756032446 C36.183869430392654 19.439652379763533, 36.097376895599936 19.48193600349462, 35.899102123264846 19.578866633275286 M35.899102123264846 19.578866633275286 C35.75637892489838 19.634557398092603, 35.61365572653191 19.690248162909924, 35.51412234602342 19.729086208503173 M35.899102123264846 19.578866633275286 C35.79678113590665 19.618792406436633, 35.694460148548444 19.65871817959798, 35.51412234602342 19.729086208503173 M35.51412234602342 19.729086208503173 C35.3869192587572 19.766956208370328, 35.25971617149098 19.804826208237483, 35.118052435703994 19.847001329696653 M35.51412234602342 19.729086208503173 C35.380414307832595 19.76889281616771, 35.24670626964177 19.808699423832245, 35.118052435703994 19.847001329696653 M35.118052435703994 19.847001329696653 C35.00939673174895 19.869784035006262, 34.900741027793906 19.892566740315868, 34.71359795140367 19.931806517013612 M35.118052435703994 19.847001329696653 C35.02914173207233 19.86564394380689, 34.94023102844067 19.884286557917125, 34.71359795140367 19.931806517013612 M34.71359795140367 19.931806517013612 C34.6283433744377 19.94243348894991, 34.54308879747172 19.953060460886206, 34.30352172736166 19.982922465033347 M34.71359795140367 19.931806517013612 C34.58417477555202 19.947939099059393, 34.45475159970037 19.964071681105175, 34.30352172736166 19.982922465033347 M34.30352172736166 19.982922465033347 C34.15415103725459 19.989100482475134, 34.004780347147516 19.995278499916918, 33.890625 20 M34.30352172736166 19.982922465033347 C34.1769139246072 19.988159002490075, 34.05030612185274 19.993395539946807, 33.890625 20 M33.890625 20 C33.890625 20, 33.890625 20, 33.890625 20 M33.890625 20 C33.890625 20, 33.890625 20, 33.890625 20 M33.890625 20 C10.330236301254683 20, -13.230152397490635 20, -33.890625 20 M33.890625 20 C9.427112525451893 20, -15.036399949096214 20, -33.890625 20 M-33.890625 20 C-33.890625 20, -33.890625 20, -33.890625 20 M-33.890625 20 C-33.890625 20, -33.890625 20, -33.890625 20 M-33.890625 20 C-34.033847180093446 19.994076286813474, -34.1770693601869 19.988152573626945, -34.30352172736166 19.982922465033347 M-33.890625 20 C-34.04284202862653 19.993704257126232, -34.19505905725307 19.98740851425246, -34.30352172736166 19.982922465033347 M-34.30352172736166 19.982922465033347 C-34.454277512700266 19.96413077598811, -34.60503329803887 19.945339086942873, -34.71359795140367 19.931806517013612 M-34.30352172736166 19.982922465033347 C-34.44955107834177 19.964719925416492, -34.59558042932188 19.946517385799638, -34.71359795140367 19.931806517013612 M-34.71359795140367 19.931806517013612 C-34.87518587589902 19.897925092188537, -35.03677380039437 19.864043667363458, -35.118052435703994 19.847001329696653 M-34.71359795140367 19.931806517013612 C-34.86933746592333 19.89915137480561, -35.02507698044299 19.866496232597605, -35.118052435703994 19.847001329696653 M-35.118052435703994 19.847001329696653 C-35.25687569525234 19.80567185465293, -35.395698954800686 19.7643423796092, -35.51412234602342 19.729086208503173 M-35.118052435703994 19.847001329696653 C-35.25870052514297 19.805128579256074, -35.399348614581946 19.763255828815492, -35.51412234602342 19.729086208503173 M-35.51412234602342 19.729086208503173 C-35.646960119019234 19.677252748635134, -35.779797892015054 19.625419288767095, -35.899102123264846 19.578866633275286 M-35.51412234602342 19.729086208503173 C-35.62839286184082 19.684497714868098, -35.74266337765823 19.639909221233022, -35.899102123264846 19.578866633275286 M-35.899102123264846 19.578866633275286 C-35.97438277598841 19.542064164696672, -36.049663428711966 19.505261696118055, -36.270361965185366 19.397368756032446 M-35.899102123264846 19.578866633275286 C-36.01431518363096 19.52254240014808, -36.12952824399708 19.466218167020873, -36.270361965185366 19.397368756032446 M-36.270361965185366 19.397368756032446 C-36.36868178805677 19.33878285802104, -36.46700161092817 19.280196960009633, -36.625365790612136 19.185832391312644 M-36.270361965185366 19.397368756032446 C-36.388782461882506 19.326805456187685, -36.50720295857964 19.25624215634293, -36.625365790612136 19.185832391312644 M-36.625365790612136 19.185832391312644 C-36.75144531691603 19.09581333976485, -36.87752484321993 19.005794288217054, -36.96168856344834 18.94570254698197 M-36.625365790612136 19.185832391312644 C-36.73371143660902 19.108475086935847, -36.842057082605905 19.031117782559054, -36.96168856344834 18.94570254698197 M-36.96168856344834 18.94570254698197 C-37.03583489129268 18.88290381067886, -37.10998121913702 18.820105074375753, -37.277032858128706 18.67861955336566 M-36.96168856344834 18.94570254698197 C-37.07627125973221 18.848655953603316, -37.19085395601608 18.751609360224663, -37.277032858128706 18.67861955336566 M-37.277032858128706 18.67861955336566 C-37.381421854267856 18.57423055722651, -37.485810850407006 18.469841561087357, -37.56924455336566 18.386407858128706 M-37.277032858128706 18.67861955336566 C-37.352844246594216 18.60280816490015, -37.42865563505973 18.52699677643464, -37.56924455336566 18.386407858128706 M-37.56924455336566 18.386407858128706 C-37.66641990633599 18.27167313568222, -37.76359525930632 18.156938413235732, -37.83632754698197 18.07106356344834 M-37.56924455336566 18.386407858128706 C-37.65396838952376 18.28637461380214, -37.738692225681866 18.18634136947557, -37.83632754698197 18.07106356344834 M-37.83632754698197 18.07106356344834 C-37.921567307317716 17.951677850973, -38.006807067653455 17.832292138497653, -38.076457391312644 17.734740790612133 M-37.83632754698197 18.07106356344834 C-37.91885846479103 17.95547182099072, -38.00138938260009 17.8398800785331, -38.076457391312644 17.734740790612133 M-38.076457391312644 17.734740790612133 C-38.14357816974944 17.622097590270446, -38.210698948186234 17.50945438992876, -38.28799375603244 17.37973696518537 M-38.076457391312644 17.734740790612133 C-38.12221034017443 17.657957435220705, -38.16796328903623 17.581174079829278, -38.28799375603244 17.37973696518537 M-38.28799375603244 17.37973696518537 C-38.347314616555494 17.258394205507187, -38.40663547707855 17.137051445829005, -38.46949163327528 17.00847712326485 M-38.28799375603244 17.37973696518537 C-38.334423858582966 17.28476267239958, -38.38085396113349 17.189788379613795, -38.46949163327528 17.00847712326485 M-38.46949163327528 17.00847712326485 C-38.51888710543196 16.88188737729623, -38.56828257758864 16.75529763132761, -38.619711208503176 16.623497346023417 M-38.46949163327528 17.00847712326485 C-38.52082387980539 16.876923849968186, -38.5721561263355 16.745370576671522, -38.619711208503176 16.623497346023417 M-38.619711208503176 16.623497346023417 C-38.66652126979319 16.466265121779994, -38.71333133108321 16.309032897536568, -38.73762632969665 16.227427435703994 M-38.619711208503176 16.623497346023417 C-38.646932560459085 16.53206243658326, -38.674153912414994 16.440627527143107, -38.73762632969665 16.227427435703994 M-38.73762632969665 16.227427435703994 C-38.76501231075728 16.096817703005254, -38.79239829181791 15.966207970306511, -38.82243151701361 15.82297295140367 M-38.73762632969665 16.227427435703994 C-38.767598013327486 16.0844859219825, -38.79756969695832 15.941544408261002, -38.82243151701361 15.82297295140367 M-38.82243151701361 15.82297295140367 C-38.83510850173746 15.721272205761908, -38.847785486461305 15.619571460120145, -38.87354746503335 15.412896727361664 M-38.82243151701361 15.82297295140367 C-38.8382407627294 15.696143731967508, -38.854050008445185 15.569314512531346, -38.87354746503335 15.412896727361664 M-38.87354746503335 15.412896727361664 C-38.87925818570679 15.274824231445596, -38.88496890638022 15.136751735529527, -38.890625 15 M-38.87354746503335 15.412896727361664 C-38.87725618127443 15.323228235881682, -38.88096489751551 15.2335597444017, -38.890625 15 M-38.890625 15 C-38.890625 15, -38.890625 15, -38.890625 15 M-38.890625 15 C-38.890625 15, -38.890625 15, -38.890625 15 M-38.890625 15 C-38.890625 3.4713448409387304, -38.890625 -8.05731031812254, -38.890625 -15 M-38.890625 15 C-38.890625 6.347195202638334, -38.890625 -2.3056095947233324, -38.890625 -15 M-38.890625 -15 C-38.890625 -15, -38.890625 -15, -38.890625 -15 M-38.890625 -15 C-38.890625 -15, -38.890625 -15, -38.890625 -15 M-38.890625 -15 C-38.8865327369337 -15.098941798735911, -38.88244047386741 -15.197883597471824, -38.87354746503335 -15.41289672736166 M-38.890625 -15 C-38.88385615782518 -15.163655515123807, -38.87708731565035 -15.327311030247612, -38.87354746503335 -15.41289672736166 M-38.87354746503335 -15.41289672736166 C-38.853856786045235 -15.570864633682252, -38.834166107057115 -15.728832540002845, -38.82243151701361 -15.822972951403669 M-38.87354746503335 -15.41289672736166 C-38.85344163870729 -15.574195141270602, -38.83333581238123 -15.735493555179541, -38.82243151701361 -15.822972951403669 M-38.82243151701361 -15.822972951403669 C-38.802720677122565 -15.916978257393552, -38.78300983723152 -16.010983563383434, -38.73762632969665 -16.227427435703994 M-38.82243151701361 -15.822972951403669 C-38.79320755604862 -15.962348412212833, -38.76398359508363 -16.101723873022, -38.73762632969665 -16.227427435703994 M-38.73762632969665 -16.227427435703994 C-38.70563676819509 -16.334878478681706, -38.67364720669352 -16.442329521659417, -38.619711208503176 -16.623497346023417 M-38.73762632969665 -16.227427435703994 C-38.70277077215654 -16.3445051896792, -38.66791521461643 -16.461582943654403, -38.619711208503176 -16.623497346023417 M-38.619711208503176 -16.623497346023417 C-38.565036860392084 -16.763615691616504, -38.51036251228099 -16.903734037209595, -38.46949163327529 -17.008477123264846 M-38.619711208503176 -16.623497346023417 C-38.58966227609446 -16.70050615987143, -38.55961334368573 -16.777514973719445, -38.46949163327529 -17.008477123264846 M-38.46949163327529 -17.008477123264846 C-38.42094243828063 -17.107786088928226, -38.37239324328598 -17.2070950545916, -38.28799375603245 -17.379736965185366 M-38.46949163327529 -17.008477123264846 C-38.42213421519609 -17.105348270282857, -38.37477679711689 -17.202219417300867, -38.28799375603245 -17.379736965185366 M-38.28799375603245 -17.379736965185366 C-38.228755374423436 -17.479151796820318, -38.16951699281443 -17.57856662845527, -38.076457391312644 -17.734740790612133 M-38.28799375603245 -17.379736965185366 C-38.22308939269312 -17.48866054105787, -38.15818502935379 -17.597584116930378, -38.076457391312644 -17.734740790612133 M-38.076457391312644 -17.734740790612133 C-37.994573439473676 -17.849426400849506, -37.91268948763471 -17.96411201108688, -37.83632754698197 -18.07106356344834 M-38.076457391312644 -17.734740790612133 C-37.98297553271858 -17.865670279946848, -37.8894936741245 -17.996599769281566, -37.83632754698197 -18.07106356344834 M-37.83632754698197 -18.07106356344834 C-37.73126302741998 -18.195113007288274, -37.626198507857985 -18.319162451128207, -37.56924455336566 -18.386407858128706 M-37.83632754698197 -18.07106356344834 C-37.75920262822438 -18.162124782953885, -37.68207770946679 -18.253186002459433, -37.56924455336566 -18.386407858128706 M-37.56924455336566 -18.386407858128706 C-37.46757350495216 -18.488078906542203, -37.36590245653866 -18.589749954955696, -37.277032858128706 -18.678619553365657 M-37.56924455336566 -18.386407858128706 C-37.46200629870125 -18.493646112793115, -37.35476804403684 -18.600884367457525, -37.277032858128706 -18.678619553365657 M-37.277032858128706 -18.678619553365657 C-37.182625125296326 -18.758578824329977, -37.08821739246395 -18.8385380952943, -36.96168856344834 -18.945702546981966 M-37.277032858128706 -18.678619553365657 C-37.16265601316498 -18.77549179956965, -37.04827916820125 -18.872364045773644, -36.96168856344834 -18.945702546981966 M-36.96168856344834 -18.945702546981966 C-36.88660625636548 -18.999310283858513, -36.81152394928263 -19.052918020735063, -36.625365790612136 -19.185832391312644 M-36.96168856344834 -18.945702546981966 C-36.88078659291568 -19.00346544369641, -36.79988462238302 -19.061228340410853, -36.625365790612136 -19.185832391312644 M-36.625365790612136 -19.185832391312644 C-36.53284277180193 -19.240964143846533, -36.440319752991726 -19.29609589638042, -36.270361965185366 -19.397368756032446 M-36.625365790612136 -19.185832391312644 C-36.53374807652286 -19.24042469932252, -36.44213036243359 -19.2950170073324, -36.270361965185366 -19.397368756032446 M-36.270361965185366 -19.397368756032446 C-36.1310540696633 -19.46547223630553, -35.991746174141234 -19.533575716578614, -35.899102123264846 -19.578866633275286 M-36.270361965185366 -19.397368756032446 C-36.15004712447171 -19.456187097594455, -36.02973228375805 -19.515005439156468, -35.899102123264846 -19.578866633275286 M-35.899102123264846 -19.578866633275286 C-35.799618551700036 -19.617685243358398, -35.700134980135225 -19.656503853441514, -35.51412234602342 -19.729086208503173 M-35.899102123264846 -19.578866633275286 C-35.80765375360603 -19.61454989784535, -35.71620538394722 -19.65023316241541, -35.51412234602342 -19.729086208503173 M-35.51412234602342 -19.729086208503173 C-35.361758168762194 -19.77444698941383, -35.209393991500974 -19.81980777032448, -35.118052435703994 -19.847001329696653 M-35.51412234602342 -19.729086208503173 C-35.414157999691966 -19.75884688384252, -35.31419365336052 -19.788607559181862, -35.118052435703994 -19.847001329696653 M-35.118052435703994 -19.847001329696653 C-35.03629510586453 -19.864144039051364, -34.95453777602507 -19.881286748406076, -34.71359795140367 -19.931806517013612 M-35.118052435703994 -19.847001329696653 C-34.97734321179569 -19.876504951374653, -34.836633987887396 -19.906008573052652, -34.71359795140367 -19.931806517013612 M-34.71359795140367 -19.931806517013612 C-34.59283996781437 -19.94685898397031, -34.47208198422506 -19.961911450927005, -34.30352172736166 -19.982922465033347 M-34.71359795140367 -19.931806517013612 C-34.59715476039936 -19.946321145635483, -34.48071156939505 -19.96083577425735, -34.30352172736166 -19.982922465033347 M-34.30352172736166 -19.982922465033347 C-34.19947272603258 -19.98722596356141, -34.0954237247035 -19.99152946208947, -33.890625 -20 M-34.30352172736166 -19.982922465033347 C-34.145709654100706 -19.989449620664963, -33.98789758083975 -19.995976776296576, -33.890625 -20 M-33.890625 -20 C-33.890625 -20, -33.890625 -20, -33.890625 -20 M-33.890625 -20 C-33.890625 -20, -33.890625 -20, -33.890625 -20" stroke="#9370DB" stroke-width="1.3" fill="none" stroke-dasharray="0 0" style=""/></g><g class="label" style="" transform="translate(-30.890625, -12)"><rect/><foreignObject width="61.78125" height="24"><div xmlns="http://www.w3.org/1999/xhtml" style="display: table-cell; white-space: nowrap; line-height: 1.5; max-width: 200px; text-align: center;"><span class="nodeLabel"><p>ROLLING</p></span></div></foreignObject></g></g><g class="node statediagram-note" id="state-OFF----note-3" transform="translate(115.7421875, 262)"><g class="basic label-container"><path d="M-72.7421875 -27 L72.7421875 -27 L72.7421875 27 L-72.7421875 27" stroke="none" stroke-width="0" fill="#fff5ad" style=""/><path d="M-72.7421875 -27 C-29.742506554607708 -27, 13.257174390784584 -27, 72.7421875 -27 M-72.7421875 -27 C-41.367814958306866 -27, -9.993442416613739 -27, 72.7421875 -27 M72.7421875 -27 C72.7421875 -7.47397017115555, 72.7421875 12.0520596576889, 72.7421875 27 M72.7421875 -27 C72.7421875 -15.107442863288263, 72.7421875 -3.214885726576526, 72.7421875 27 M72.7421875 27 C32.22980928115683 27, -8.282568937686335 27, -72.7421875 27 M72.7421875 27 C35.69261831382512 27, -1.3569508723497563 27, -72.7421875 27 M-72.7421875 27 C-72.7421875 9.216383826020252, -72.7421875 -8.567232347959497, -72.7421875 -27 M-72.7421875 27 C-72.7421875 15.506977549076387, -72.7421875 4.013955098152774, -72.7421875 -27" stroke="#aaaa33" stroke-width="1.3" fill="none" stroke-dasharray="0 0" style=""/></g><g class="label" style="" transform="translate(-57.7421875, -12)"><rect/><foreignObject width="115.484375" height="24"><div xmlns="http://www.w3.org/1999/xhtml" style="display: table-cell; white-space: nowrap; line-height: 1.5; max-width: 200px; text-align: center;"><span class="nodeLabel"><p>Duty cycle = 0.0</p></span></div></foreignObject></g></g><g class="node statediagram-note" id="state-ROLLING----note-4" transform="translate(373.5546875, 416)"><g class="basic label-container"><path d="M-72.7421875 -27 L72.7421875 -27 L72.7421875 27 L-72.7421875 27" stroke="none" stroke-width="0" fill="#fff5ad" style=""/><path d="M-72.7421875 -27 C-37.35101126870101 -27, -1.9598350374020157 -27, 72.7421875 -27 M-72.7421875 -27 C-19.613352822415266 -27, 33.51548185516947 -27, 72.7421875 -27 M72.7421875 -27 C72.7421875 -6.593098008438645, 72.7421875 13.81380398312271, 72.7421875 27 M72.7421875 -27 C72.7421875 -9.775134644850347, 72.7421875 7.449730710299306, 72.7421875 27 M72.7421875 27 C25.10401165876449 27, -22.534164182471017 27, -72.7421875 27 M72.7421875 27 C39.03010361232639 27, 5.318019724652785 27, -72.7421875 27 M-72.7421875 27 C-72.7421875 5.446656427964797, -72.7421875 -16.106687144070406, -72.7421875 -27 M-72.7421875 27 C-72.7421875 6.2681236722100735, -72.7421875 -14.463752655579853, -72.7421875 -27" stroke="#aaaa33" stroke-width="1.3" fill="none" stroke-dasharray="0 0" style=""/></g><g class="label" style="" transform="translate(-57.7421875, -12)"><rect/><foreignObject width="115.484375" height="24"><div xmlns="http://www.w3.org/1999/xhtml" style="display: table-cell; white-space: nowrap; line-height: 1.5; max-width: 200px; text-align: center;"><span class="nodeLabel"><p>Duty cycle = 1.0</p></span></div></foreignObject></g></g></g></g></g></svg>